<svg xmlns="http://www.w3.org/2000/svg" viewBox="0 0 32 32"><defs><style>.cls-1{fill:#231815;}</style></defs><title>alarm</title><g id="레이어_1" data-name="레이어 1"><path class="cls-1" d="M25.27,4a3.84,3.84,0,0,0-3.75,3,11.56,11.56,0,0,1,4.56,4.56A3.84,3.84,0,0,0,25.27,4Z"/><path class="cls-1" d="M7.88,25.22,5.8,27.3a.41.41,0,0,0,.29.7h6.27A11.38,11.38,0,0,1,7.88,25.22Z"/><path class="cls-1" d="M24.12,25.23A11.62,11.62,0,0,1,19.64,28h6.27a.41.41,0,0,0,.29-.7Z"/><path class="cls-1" d="M10.48,7a3.83,3.83,0,1,0-4.56,4.56A11.56,11.56,0,0,1,10.48,7Z"/><path class="cls-1" d="M16,6.21A10.9,10.9,0,1,0,26.9,17.1,10.89,10.89,0,0,0,16,6.21Zm0,12.25a1.36,1.36,0,1,1,1.36-1.36A1.36,1.36,0,0,1,16,18.46Z"/></g></svg>