<svg xmlns="http://www.w3.org/2000/svg" viewBox="0 0 32 32"><defs><style>.cls-1{fill:none;stroke:#231815;stroke-linecap:round;stroke-linejoin:round;}</style></defs><title>boonjae</title><g id="레이어_1" data-name="레이어 1"><path class="cls-1" d="M24.45,16v2.51H7.55V16Z"/><polyline class="cls-1" points="23.9 18.54 22.82 28 9.09 28 8.04 18.54"/><path class="cls-1" d="M14.39,16s-.27-.88.27-1.13,1.52-.65,1.59-1.49S15,12.66,15,12.66s-2.75.61-3.5-.09"/><path class="cls-1" d="M19.05,16A1.91,1.91,0,0,1,18,14.37a2.06,2.06,0,0,0-.78-1.77c-.15-.12-.93-.51-.79-.71a1.53,1.53,0,0,1,1.25-.69c.7,0,.71.23,1.12,0"/><path class="cls-1" d="M19.08,7.53a1.15,1.15,0,0,0-1.13-1h-.12A2,2,0,0,0,18,5.85a1.85,1.85,0,1,0-3.7,0,1.64,1.64,0,0,0,0,.23,1.89,1.89,0,0,0-1.07-.34,1.85,1.85,0,0,0-1.85,1.85,1.77,1.77,0,0,0,.18.8,1.3,1.3,0,0,0-.61.75,1.75,1.75,0,0,0-.4-.05A1.86,1.86,0,1,0,12.06,12a1.46,1.46,0,0,0,2.58-.94,1.37,1.37,0,0,0-.09-.49,1,1,0,0,0,.75-.68,1.24,1.24,0,0,0,.76.25l.26,0v0a.9.9,0,0,0,.9.9.91.91,0,0,0,.51-.16,1.85,1.85,0,1,0,1.35-3.36Z"/><path class="cls-1" d="M11.72,12.37a2.3,2.3,0,0,0,1.42.16"/><path class="cls-1" d="M15.51,10s-.2,1.61.33,1.52.42-.3,1.3-.5"/><path class="cls-1" d="M14,12.29A3.94,3.94,0,0,1,15.36,12a2.76,2.76,0,0,1-.16-1.92"/></g></svg>