<svg xmlns="http://www.w3.org/2000/svg" viewBox="0 0 32 32"><defs><style>.cls-1{fill:none;stroke:#231815;stroke-linecap:round;stroke-linejoin:round;}</style></defs><title>field_flower</title><g id="레이어_1" data-name="레이어 1"><path class="cls-1" d="M10.76,14.85h13v2.76H8.21V14.85H10"/><polyline class="cls-1" points="23.27 17.61 22.28 28 9.63 28 8.66 17.61"/><ellipse class="cls-1" cx="14.09" cy="7.93" rx="1.66" ry="1.63"/><path class="cls-1" d="M17.45,7.93a1.16,1.16,0,0,0,.44-1.36,1.19,1.19,0,0,0-1.23-.76,1.16,1.16,0,0,0-.55-1.32,1.19,1.19,0,0,0-1.43.19A1.2,1.2,0,0,0,13.39,4a1.18,1.18,0,0,0-1,1.05A1.19,1.19,0,0,0,11,5.38a1.16,1.16,0,0,0-.06,1.42,1.17,1.17,0,0,0,0,2.26A1.16,1.16,0,0,0,11,10.48a1.19,1.19,0,0,0,1.41.31,1.19,1.19,0,0,0,1,1.05,1.21,1.21,0,0,0,1.29-.66,1.19,1.19,0,0,0,1.43.19,1.16,1.16,0,0,0,.55-1.32,1.19,1.19,0,0,0,1.23-.76A1.16,1.16,0,0,0,17.45,7.93Z"/><path class="cls-1" d="M16.62,14.85S19.43,9,23.79,7.93c0,0-4.68,4-5.08,6.92"/><path class="cls-1" d="M14.57,11.36a12,12,0,0,1,1.23,3.49"/><path class="cls-1" d="M14.89,11.36a12,12,0,0,1,1.23,3.49"/><path class="cls-1" d="M15.19,14.85s-3.66-3.49-5.45.57c0,0,2.34-1.68,3.66-.57"/></g></svg>