<svg xmlns="http://www.w3.org/2000/svg" viewBox="0 0 32 32"><defs><style>.cls-1{fill:none;stroke:#040000;stroke-linecap:round;stroke-linejoin:round;}</style></defs><title>flower</title><g id="레이어_1" data-name="레이어 1"><path class="cls-1" d="M15.77,8.3A11.34,11.34,0,0,1,17.71,4a.86.86,0,0,0,.3.33S18,4,18.09,4s.24.48.4.35a1.06,1.06,0,0,1,.23-.15s1.43,5.6.19,6.6c0,0,2-.59.07-6.62,0,0-.14.31-.21.22"/><path class="cls-1" d="M17,11.21a1.74,1.74,0,0,1-.68-.47"/><path class="cls-1" d="M18.77,10.9a3.31,3.31,0,0,1-1.17.35"/><path class="cls-1" d="M17.3,11.25s-1.41,13.25.89,15.85h.58s-2.71-3.05-.95-15.73"/><path class="cls-1" d="M17.71,11.25s0,.22.55.11c0,0,2.84.38,2.34-3.3-.54-4-1.29-4-1.29-4s.08.23-.1.15-.21,0-.21,0"/><path class="cls-1" d="M13.24,12.78s-3.53-.32-1-7.18a.75.75,0,0,0,.36.25s-.08-.34,0-.32.34.41.46.25a1.24,1.24,0,0,1,.19-.2S16,10.71,15,12c0,0,1.82-1-1.43-6.45,0,0-.06.32-.16.26"/><path class="cls-1" d="M14.87,12.08a3.35,3.35,0,0,1-1.06.61"/><path class="cls-1" d="M13.51,12.76S15.13,26,18,28l.57-.13s-3.33-2.36-4.48-15.11"/><path class="cls-1" d="M13.92,12.66s0,.22.56,0c0,0,2.84-.27,1.53-3.75-1.43-3.77-2.17-3.6-2.17-3.6s.14.21-.06.17-.2.09-.2.09"/></g></svg>