<svg xmlns="http://www.w3.org/2000/svg" viewBox="0 0 32 32"><defs><style>.cls-1{fill:none;stroke:#231815;stroke-linecap:round;stroke-linejoin:round;}</style></defs><title>foliage_plant</title><g id="레이어_1" data-name="레이어 1"><path class="cls-1" d="M19.64,18.38H9.28V15.82H17.8"/><polyline class="cls-1" points="23.02 20.49 22.31 28 10.59 28 9.7 18.38"/><path class="cls-1" d="M16.13,15.82a8.2,8.2,0,0,0-.6-3c.92-.36,3.8-5-8.45-5,0,0,3.18,7.14,6.2,6.17a3.83,3.83,0,0,0,1.87-1,6.21,6.21,0,0,1,.54,2.73"/><path class="cls-1" d="M16.29,15.76a5,5,0,0,1,1.28-4.49c-.7,0-5.21-4.21,7.35-7.27,0,0-.42,5.82-3.39,6.76s-3.56.52-3.56.52a5.06,5.06,0,0,0-1.25,4.54"/><path class="cls-1" d="M17.09,15.76s-.21-2.83,2.42-2.71c.91-1.28,7.17-2.27,4.19,7.76,0,0-9.6-4.21-4.34-7.4,0,0-1.67-.35-2,2.35"/></g></svg>