<svg xmlns="http://www.w3.org/2000/svg" viewBox="0 0 32 32"><defs><style>.cls-1{fill:none;stroke:#231815;stroke-linecap:round;stroke-linejoin:round;}</style></defs><title>market</title><g id="레이어_1" data-name="레이어 1"><rect class="cls-1" x="4.62" y="5.24" width="22.76" height="8.01"/><rect class="cls-1" x="4.62" y="22.32" width="4.61" height="4.67"/><path class="cls-1" d="M6.79,5.24V4.59A.59.59,0,0,0,6.2,4h0a.58.58,0,0,0-.59.59v.65"/><line class="cls-1" x1="6.79" y1="22.32" x2="6.79" y2="13.26"/><path class="cls-1" d="M5.61,27v.41A.58.58,0,0,0,6.2,28h0a.59.59,0,0,0,.59-.59V27"/><line class="cls-1" x1="5.61" y1="13.26" x2="5.61" y2="22.32"/><line class="cls-1" x1="25.21" y1="22.31" x2="25.21" y2="13.26"/><path class="cls-1" d="M26.39,27v.41a.58.58,0,0,1-.59.59h0a.59.59,0,0,1-.59-.59V27"/><line class="cls-1" x1="26.39" y1="13.27" x2="26.39" y2="22.3"/><path class="cls-1" d="M25.21,5.24V4.59A.59.59,0,0,1,25.8,4h0a.58.58,0,0,1,.59.59v.65"/><rect class="cls-1" x="10.32" y="22.3" width="17.06" height="4.69"/><line class="cls-1" x1="9.24" y1="22.7" x2="10.32" y2="22.7"/><line class="cls-1" x1="9.24" y1="24.66" x2="10.32" y2="24.66"/></g></svg>