<svg xmlns="http://www.w3.org/2000/svg" viewBox="0 0 32 32"><defs><style>.cls-1{fill:none;stroke:#231815;stroke-linecap:round;stroke-linejoin:round;}</style></defs><title>nan</title><g id="레이어_1" data-name="레이어 1"><path class="cls-1" d="M25,17v2.31H9.46V17Z"/><polyline class="cls-1" points="24.53 19.27 23.54 28 10.88 28 9.91 19.27"/><path class="cls-1" d="M18.69,16.91S20.17,6.67,29.34,8.4c0,0-6.41-1.77-9.16,8.51"/><path class="cls-1" d="M16.54,16.91s.55-8.58-7.8-7.12c0,0,6.84-.66,6.88,7.12"/><path class="cls-1" d="M17.39,11.12C16.93,8.33,15.77,5.61,13,5.73c0,0,3.54-1.86,4,11.18"/><path class="cls-1" d="M17.93,16.91S14.13,1.83,26.19,4.27c0,0-9.58-2.35-7.59,12.64"/><path class="cls-1" d="M15.43,17S17.56,9.75,2.66,9.38c0,0,12.8,1.35,12.09,7.58"/></g></svg>