<svg xmlns="http://www.w3.org/2000/svg" viewBox="0 0 296.11 68.55"><defs><style>.cls-1{fill:#231815;}</style></defs><title>simpol_logo</title><g id="레이어_1" data-name="레이어 1"><path d="M184.46,21.81a40.23,40.23,0,0,0-3.53-8.34,16.63,16.63,0,0,0-5-5.67c-.41-.31-1.6-1-2.3-.18s-.22,3.91-.09,4.43c1.27,5,2,13.85-1.47,17.78a11.29,11.29,0,0,0-2.83,6.83s0,.08,0,.11c-1.76.83-5,2.59-5.22,4.5-.06.42-.12.74-.18,1,1.17-1,3.75-3.25,5.7-4.69a1.24,1.24,0,0,0,1.3.39C175.63,36.63,187,32.65,184.46,21.81Z"/><path d="M163.87,42.26l-.63.56S163.55,43.59,163.87,42.26Z"/><path class="cls-1" d="M26,55.47q5.68,0,8.23-2a6.21,6.21,0,0,0,2.56-5.07v-.9a6,6,0,0,0-2.68-5.4,24,24,0,0,0-7.78-2.92q-3.7-.83-7.46-1.73a24,24,0,0,1-6.75-2.72,14.45,14.45,0,0,1-4.9-4.9,15.76,15.76,0,0,1-1.89-8.28V20.47A16.23,16.23,0,0,1,6.4,14.83,14.67,14.67,0,0,1,9.94,9.44a18.9,18.9,0,0,1,6.55-4.08A27.62,27.62,0,0,1,26.57,3.75a43,43,0,0,1,9.48,1,28.91,28.91,0,0,1,9.06,3.91l-5,8.16a21.54,21.54,0,0,0-6.75-3,30.94,30.94,0,0,0-6.67-.7,16,16,0,0,0-4.86.66,11,11,0,0,0-3.42,1.73,7.44,7.44,0,0,0-2,2.31,5.16,5.16,0,0,0-.65,2.47v1a5.41,5.41,0,0,0,1,3.45,7.9,7.9,0,0,0,2.75,2.19,18.89,18.89,0,0,0,4.08,1.4l5,1.11a42.41,42.41,0,0,1,8.86,2.84,20.76,20.76,0,0,1,5.76,3.83,12.69,12.69,0,0,1,3.13,4.74,16.32,16.32,0,0,1,.95,5.64v1.07a17.48,17.48,0,0,1-1.77,8.27,14.42,14.42,0,0,1-4.82,5.36,20.59,20.59,0,0,1-7,2.88A38.25,38.25,0,0,1,25.5,65a36.53,36.53,0,0,1-6.3-.54A40.64,40.64,0,0,1,13.4,63a32.25,32.25,0,0,1-5.07-2.18,27.08,27.08,0,0,1-4.07-2.68l5.1-8.4A26,26,0,0,0,26,55.47Z"/><path class="cls-1" d="M58.36,4.66H68.91V64H58.36Z"/><path class="cls-1" d="M95.1,22.86c-.44-1-.88-2.27-1.32-3.67s-1-3.17-1.73-5.31V64h-9.8V4.66h15l14.58,36.9,14-36.9H141V64H131V13.88c-.6,2.47-1.12,4.33-1.56,5.56s-.85,2.38-1.24,3.42l-12.43,31.3h-8.4Z"/><path class="cls-1" d="M216.72,3.75a31.79,31.79,0,0,1,9.6,1.44,21.82,21.82,0,0,1,8,4.53,21.65,21.65,0,0,1,5.48,8,30.83,30.83,0,0,1,2,11.78v9.8a31.37,31.37,0,0,1-2,11.9,20.48,20.48,0,0,1-13.43,12.4,34.13,34.13,0,0,1-19.35,0,20.48,20.48,0,0,1-13.43-12.4,31.36,31.36,0,0,1-2-11.9v-9.8a30.82,30.82,0,0,1,2-11.78,21.54,21.54,0,0,1,5.48-8,21.82,21.82,0,0,1,8-4.53A31.72,31.72,0,0,1,216.72,3.75Zm0,51.56a20,20,0,0,0,5.69-.78A10.78,10.78,0,0,0,227,51.77a13.26,13.26,0,0,0,3.09-5.36,27.5,27.5,0,0,0,1.11-8.48V30.77a27.62,27.62,0,0,0-1.11-8.49A13.28,13.28,0,0,0,227,16.93a10.78,10.78,0,0,0-4.61-2.76,20,20,0,0,0-5.69-.78,19.68,19.68,0,0,0-5.6.78,10.78,10.78,0,0,0-4.61,2.76,13.68,13.68,0,0,0-3.13,5.35,26.63,26.63,0,0,0-1.15,8.49v7.16a26.52,26.52,0,0,0,1.15,8.48,13.66,13.66,0,0,0,3.13,5.36,10.78,10.78,0,0,0,4.61,2.76A19.68,19.68,0,0,0,216.72,55.31Z"/><path class="cls-1" d="M263.59,4.66V55.14h27.09V64H253V4.66Z"/><polygon points="164.85 13.47 164.85 4.66 154.31 4.66 154.31 64.04 164.85 64.04 164.85 62.52 164.85 41.23 164.85 32.33 164.85 13.47"/></g></svg>