<svg xmlns="http://www.w3.org/2000/svg" width="11.618" height="10.501" viewBox="0 0 11.618 10.501">
    <defs>
        <style>
            .prefix__cls-1{fill:none;stroke:#231815;stroke-linecap:round;stroke-linejoin:round;stroke-width:.5px}
        </style>
    </defs>
    <g id="prefix__레이어_1" data-name="레이어 1" transform="translate(-2.41 -3.752)">
        <path id="prefix__패스_49" d="M15.936 17v.963H9.46V17z" class="prefix__cls-1" data-name="패스 49" transform="translate(-3.966 -7.581)"/>
        <path id="prefix__패스_50" d="M16 19.27l-.413 3.638h-5.273l-.4-3.638" class="prefix__cls-1" data-name="패스 50" transform="translate(-4.229 -8.905)"/>
        <path id="prefix__패스_51" d="M18.69 11.831s.617-4.267 4.438-3.546c0 0-2.671-.738-3.817 3.546" class="prefix__cls-1" data-name="패스 51" transform="translate(-9.35 -2.45)"/>
        <path id="prefix__패스_52" d="M11.99 12.659s.229-3.575-3.25-2.967a2.643 2.643 0 0 1 2.867 2.967" class="prefix__cls-1" data-name="패스 52" transform="translate(-3.546 -3.278)"/>
        <path id="prefix__패스_53" d="M14.829 7.923c-.192-1.163-.675-2.3-1.829-2.246 0 0 1.475-.775 1.667 4.659" class="prefix__cls-1" data-name="패스 53" transform="translate(-6.031 -.954)"/>
        <path id="prefix__패스_54" d="M17.6 9.382S16.015 3.1 21.041 4.114c0 0-3.992-.979-3.163 5.267" class="prefix__cls-1" data-name="패스 54" transform="translate(-8.576)"/>
        <path id="prefix__패스_55" d="M7.981 12.555S8.869 9.534 2.66 9.38c0 0 5.334.563 5.038 3.159" class="prefix__cls-1" data-name="패스 55" transform="translate(0 -3.136)"/>
    </g>
</svg>
