<svg xmlns="http://www.w3.org/2000/svg" width="74.807" height="16" viewBox="0 0 74.807 16">
    <defs>
        <style>
            .prefix__cls-1{fill:#66b773}
        </style>
    </defs>
    <g id="prefix__simpol_logo" data-name="simpol logo" transform="translate(-4.26 -3.74)">
        <path id="prefix__패스_82" d="M169.226 11.04a10.509 10.509 0 0 0-.922-2.178A4.344 4.344 0 0 0 167 7.381c-.107-.081-.418-.261-.6-.047s-.057 1.021-.023 1.157c.332 1.306.522 3.617-.384 4.644a2.949 2.949 0 0 0-.739 1.784v.029c-.46.217-1.306.676-1.363 1.175-.016.11-.031.193-.047.261.306-.261.979-.849 1.489-1.225a.324.324 0 0 0 .34.1c1.246-.348 4.216-1.388 3.553-4.219z" class="prefix__cls-1" data-name="패스 82" transform="translate(-117.901 -2.581)"/>
        <path id="prefix__패스_83" d="M163.4 42.26l-.165.146s.086.201.165-.146z" class="prefix__cls-1" data-name="패스 83" transform="translate(-117.458 -28.46)"/>
        <path id="prefix__패스_84" d="M9.938 17.251a3.5 3.5 0 0 0 2.15-.522 1.622 1.622 0 0 0 .669-1.324v-.235a1.567 1.567 0 0 0-.7-1.41 6.268 6.268 0 0 0-2.033-.76q-.966-.217-1.948-.452a6.268 6.268 0 0 1-1.763-.71 3.774 3.774 0 0 1-1.28-1.28 4.116 4.116 0 0 1-.494-2.163v-.286a4.239 4.239 0 0 1 .279-1.473 3.832 3.832 0 0 1 .925-1.408 4.936 4.936 0 0 1 1.711-1.065 7.214 7.214 0 0 1 2.633-.42A11.231 11.231 0 0 1 12.563 4a7.551 7.551 0 0 1 2.366 1.021l-1.306 2.135a5.626 5.626 0 0 0-1.763-.784 8.081 8.081 0 0 0-1.742-.183 4.179 4.179 0 0 0-1.269.172 2.873 2.873 0 0 0-.893.452 1.943 1.943 0 0 0-.522.6 1.348 1.348 0 0 0-.17.645v.261a1.413 1.413 0 0 0 .261.9 2.063 2.063 0 0 0 .718.572 4.934 4.934 0 0 0 1.066.366l1.306.29a11.077 11.077 0 0 1 2.314.742 5.422 5.422 0 0 1 1.5 1 3.314 3.314 0 0 1 .817 1.238 4.262 4.262 0 0 1 .248 1.473v.279a4.565 4.565 0 0 1-.462 2.16 3.766 3.766 0 0 1-1.259 1.4 5.378 5.378 0 0 1-1.828.752 9.99 9.99 0 0 1-2.142.243 9.541 9.541 0 0 1-1.641-.134 10.614 10.614 0 0 1-1.515-.381 8.423 8.423 0 0 1-1.324-.569 7.073 7.073 0 0 1-1.063-.7l1.332-2.194a6.791 6.791 0 0 0 4.346 1.5z" class="prefix__cls-1" data-name="패스 84"/>
        <path id="prefix__패스_85" d="M58.36 4.66h2.755v15.5H58.36z" class="prefix__cls-1" data-name="패스 85" transform="translate(-39.97 -.68)"/>
        <path id="prefix__패스_86" d="M85.606 9.413a9.734 9.734 0 0 1-.345-.959c-.115-.366-.261-.828-.452-1.387v13.09H82.25V4.66h3.918l3.808 9.64 3.656-9.64h3.962v15.5h-2.611V7.068c-.157.645-.292 1.131-.407 1.452s-.222.622-.324.893L91 17.588h-2.189z" class="prefix__cls-1" data-name="패스 86" transform="translate(-57.621 -.68)"/>
        <path id="prefix__패스_87" d="M198.145 3.75a8.3 8.3 0 0 1 2.507.376 5.7 5.7 0 0 1 2.089 1.183 5.655 5.655 0 0 1 1.432 2.091 8.054 8.054 0 0 1 .522 3.077v2.56a8.194 8.194 0 0 1-.522 3.108 5.349 5.349 0 0 1-3.508 3.239 8.914 8.914 0 0 1-5.054 0 5.349 5.349 0 0 1-3.508-3.239 8.191 8.191 0 0 1-.522-3.108v-2.56A8.05 8.05 0 0 1 192.1 7.4a5.626 5.626 0 0 1 1.431-2.089 5.7 5.7 0 0 1 2.089-1.183 8.284 8.284 0 0 1 2.52-.376zm0 13.466a5.224 5.224 0 0 0 1.486-.2 2.816 2.816 0 0 0 1.2-.721 3.464 3.464 0 0 0 .807-1.4 7.182 7.182 0 0 0 .29-2.215v-1.87a7.212 7.212 0 0 0-.29-2.217 3.469 3.469 0 0 0-.807-1.4 2.815 2.815 0 0 0-1.2-.721 5.223 5.223 0 0 0-1.486-.2 5.14 5.14 0 0 0-1.463.2 2.816 2.816 0 0 0-1.2.721 3.573 3.573 0 0 0-.817 1.4 6.955 6.955 0 0 0-.3 2.217v1.87a6.925 6.925 0 0 0 .3 2.215 3.568 3.568 0 0 0 .817 1.4 2.816 2.816 0 0 0 1.2.721 5.14 5.14 0 0 0 1.468.2z" class="prefix__cls-1" data-name="패스 87" transform="translate(-138.395 -.007)"/>
        <path id="prefix__패스_88" d="M255.766 4.66v13.184h7.075v2.314H253V4.66z" class="prefix__cls-1" data-name="패스 88" transform="translate(-183.774 -.68)"/>
        <path id="prefix__패스_89" d="M157.063 6.961V4.66h-2.753v15.509h2.753V6.961z" class="prefix__cls-1" data-name="패스 89" transform="translate(-110.86 -.68)"/>
    </g>
</svg>
